<?xml version="1.0" standalone="no"?>
<!DOCTYPE svg PUBLIC "-//W3C//DTD SVG 20010904//EN"
 "http://www.w3.org/TR/2001/REC-SVG-20010904/DTD/svg10.dtd">
<svg version="1.0" xmlns="http://www.w3.org/2000/svg"
 width="500.000000pt" height="500.000000pt" viewBox="0 0 500.000000 500.000000"
 preserveAspectRatio="xMidYMid meet">

<g transform="translate(0.000000,500.000000) scale(0.100000,-0.100000)"
fill="#000000" stroke="none">
<path d="M600 4191 c-69 -21 -140 -82 -176 -151 -18 -34 -19 -92 -19 -1540 l0
-1505 30 -54 c16 -29 45 -66 64 -82 77 -63 -59 -59 2005 -59 l1881 0 50 24
c56 25 115 86 142 143 17 36 18 123 18 1528 l0 1490 -28 57 c-16 32 -46 73
-69 92 -83 71 72 66 -2002 65 -1029 0 -1882 -4 -1896 -8z m519 -342 c24 -24
31 -39 31 -70 0 -51 -13 -75 -50 -94 -45 -23 -85 -19 -122 14 -28 25 -33 36
-33 76 0 40 5 51 33 76 46 41 99 40 141 -2z m471 2 c36 -36 46 -73 30 -112
-40 -95 -168 -91 -200 5 -33 101 95 182 170 107z m476 -5 c26 -26 34 -42 34
-71 0 -49 -53 -105 -99 -105 -65 0 -111 45 -111 107 1 60 46 102 109 103 25 0
42 -9 67 -34z m2272 -1633 l-3 -1158 -1835 0 -1835 0 -3 1158 -2 1157 1840 0
1840 0 -2 -1157z"/>
<path d="M1627 2863 c-4 -3 -7 -147 -7 -319 0 -275 2 -313 16 -318 25 -10 597
-7 613 3 20 13 8 120 -24 218 -50 153 -163 281 -310 354 -102 50 -265 86 -288
62z"/>
<path d="M3140 2270 l0 -590 173 2 172 3 0 585 0 585 -172 3 -173 2 0 -590z"/>
<path d="M1332 2686 c-99 -25 -216 -91 -291 -165 -55 -54 -78 -88 -114 -162
-52 -108 -67 -170 -67 -272 1 -172 60 -317 180 -438 123 -124 260 -181 435
-181 323 -1 579 229 615 552 4 39 3 70 -3 78 -7 9 -79 12 -298 12 l-289 0 -2
293 -3 292 -55 2 c-30 1 -79 -4 -108 -11z"/>
<path d="M3642 2648 c-9 -9 -12 -128 -12 -474 0 -254 3 -469 6 -478 5 -14 30
-16 174 -16 144 0 169 2 174 16 3 9 6 224 6 478 0 346 -3 465 -12 474 -8 8
-60 12 -168 12 -108 0 -160 -4 -168 -12z"/>
<path d="M2635 2288 c-3 -7 -4 -146 -3 -308 l3 -295 178 -3 177 -2 -2 307 -3
308 -173 3 c-133 2 -174 0 -177 -10z"/>
<path d="M2474 1617 c-3 -8 -4 -47 -2 -88 l3 -74 829 -3 c657 -2 831 0 838 10
9 15 11 129 2 152 -6 14 -88 16 -835 16 -685 0 -831 -2 -835 -13z"/>
</g>
</svg>
